<?xml version="1.0" encoding="UTF-8" standalone="no"?>
<!-- Created with Inkscape (http://www.inkscape.org/) -->

<svg
   xmlns:dc="http://purl.org/dc/elements/1.1/"
   xmlns:cc="http://creativecommons.org/ns#"
   xmlns:rdf="http://www.w3.org/1999/02/22-rdf-syntax-ns#"
   xmlns:svg="http://www.w3.org/2000/svg"
   xmlns="http://www.w3.org/2000/svg"
   xmlns:sodipodi="http://sodipodi.sourceforge.net/DTD/sodipodi-0.dtd"
   xmlns:inkscape="http://www.inkscape.org/namespaces/inkscape"
   id="svg4189"
   version="1.1"
   inkscape:version="0.91 r13725"
   xml:space="preserve"
   width="113.70334"
   height="60.23727"
   viewBox="0 0 113.70334 60.23727"
   sodipodi:docname="logo.svg"><metadata
     id="metadata4195"><rdf:RDF><cc:Work
         rdf:about=""><dc:format>image/svg+xml</dc:format><dc:type
           rdf:resource="http://purl.org/dc/dcmitype/StillImage" /><dc:title /></cc:Work></rdf:RDF></metadata><defs
     id="defs4193" /><sodipodi:namedview
     pagecolor="#ffffff"
     bordercolor="#666666"
     borderopacity="1"
     objecttolerance="10"
     gridtolerance="10"
     guidetolerance="10"
     inkscape:pageopacity="0"
     inkscape:pageshadow="2"
     inkscape:window-width="1680"
     inkscape:window-height="1013"
     id="namedview4191"
     showgrid="false"
     inkscape:zoom="17.109399"
     inkscape:cx="58.874768"
     inkscape:cy="37.716046"
     inkscape:window-x="0"
     inkscape:window-y="0"
     inkscape:window-maximized="1"
     inkscape:current-layer="g4197"
     fit-margin-top="0"
     fit-margin-left="0"
     fit-margin-right="0"
     fit-margin-bottom="0" /><g
     id="g4197"
     inkscape:groupmode="layer"
     inkscape:label="ink_ext_XXXXXX"
     transform="matrix(1.25,0,0,-1.25,0,60.23727)"><path
       inkscape:connector-curvature="0"
       id="path4201-3"
       style="fill:#ffffff;fill-opacity:1;fill-rule:nonzero;stroke:none;opacity:0.73"
       d="m 45.399576,46.917008 c -7.557039,0 -13.682016,-6.126972 -13.682016,-13.682017 0,-7.558583 6.124977,-13.684333 13.682016,-13.684333 7.558068,0 13.684789,6.12575 13.684789,13.684333 0,7.555045 -6.126721,13.682017 -13.684789,13.682017"
       sodipodi:nodetypes="csssc" /><path
       inkscape:connector-curvature="0"
       id="path4201"
       style="fill:#00338d;fill-opacity:1;fill-rule:nonzero;stroke:none"
       d="m 55.393623,31.89766 c -0.985545,-1.132785 -2.249731,-1.700508 -3.790105,-1.700508 -1.098586,0 -3.367169,0.691206 -6.808272,2.07558 -3.026296,1.212467 -4.964518,1.821538 -5.820765,1.821538 -2.198222,0 -3.512235,-1.285 -3.941269,-3.856051 l -1.027384,0 0,0.192932 c 0,1.72798 0.497714,3.15118 1.488655,4.270859 0.991572,1.121011 2.266691,1.680816 3.822203,1.680816 1.114143,0 3.346564,-0.696672 6.702239,-2.096955 3.080258,-1.271264 5.084987,-1.903673 6.014398,-1.903673 1.096903,0 1.990152,0.343606 2.67456,1.034532 0.68574,0.693939 1.091437,1.66715 1.220947,2.923697 l 1.027874,0 c -0.05691,-1.827284 -0.578377,-3.30802 -1.563081,-4.442767 z m -9.913969,16.292156 c -8.228458,0 -14.897619,-6.671334 -14.897619,-14.89762 0,-8.230139 6.669161,-14.900142 14.897619,-14.900142 8.229579,0 14.900633,6.670003 14.900633,14.900142 0,8.226286 -6.671054,14.89762 -14.900633,14.89762" /><path
       inkscape:connector-curvature="0"
       id="path4203"
       style="fill:#00338d;fill-opacity:1;fill-rule:nonzero;stroke:none"
       d="m 3.6628109,4.7715089 c 0.6296332,0.1861554 1.1456586,0.4818049 1.5480761,0.8869626 0.4024175,0.4051507 0.6036262,0.9417097 0.6036262,1.6096701 0,0.6515404 -0.2231089,1.1784773 -0.6693269,1.5809509 C 4.6989683,9.251496 4.1090288,9.4526978 3.3753748,9.4526978 l -1.0101505,0 0,-7.4488237 c 0,-0.5694059 0.080754,-0.9663501 0.242269,-1.19082562 C 2.7690084,0.58856872 3.0550849,0.47633024 3.4657089,0.47633024 l 0,-0.28744097 -3.4657089,0 0,0.28744097 c 0.42705439,0 0.71586054,0.11223848 0.86642897,0.33671824 C 1.0169904,1.037524 1.0922711,1.4344682 1.0922711,2.0038741 l 0,6.0362767 c 0,0.5694058 -0.073907,0.9622082 -0.2217354,1.1784774 C 0.72270743,9.4348973 0.43252979,9.5430318 0,9.5430318 l 0,0.2792016 3.950254,0 c 0.9745565,0 1.7533845,-0.2368028 2.3364771,-0.7103382 C 6.8698238,8.6382897 7.1614086,8.0346144 7.1614086,7.3010094 7.1614086,6.1183762 6.4988935,5.3299681 5.1739264,4.9357641 5.5571838,4.6729614 5.9212742,4.3909986 6.2662045,4.0898688 6.6111278,3.7887389 7.221608,3.1125721 8.097617,2.0613613 8.6450875,1.4043546 9.1406283,0.98003682 9.5840991,0.7884081 10.02757,0.59678148 10.408108,0.50096782 10.725644,0.50096782 l 0,-0.31207855 C 9.849635,0.16698904 9.2172265,0.20531478 8.8285589,0.3038658 8.2864845,0.36956647 7.6267446,0.78019464 6.8492971,1.5357559 5.9404343,2.5869667 5.3135412,3.2932472 4.9686109,3.6545974 4.6236876,4.0159546 4.1884163,4.3882585 3.6628109,4.7715089" /><path
       inkscape:connector-curvature="0"
       id="path4205"
       style="fill:#00338d;fill-opacity:1;fill-rule:nonzero;stroke:none"
       d="m 12.357193,4.1062957 3.243967,0 0,0.1149744 c 0,0.5310787 -0.151935,0.9526563 -0.455805,1.2647398 -0.30387,0.3120764 -0.683007,0.4681111 -1.13741,0.4681111 -0.481805,0 -0.869212,-0.1642481 -1.162079,-0.4927515 C 12.552929,5.1328661 12.390061,4.6811748 12.357193,4.1062957 Z m 4.475846,-2.3898647 0,-0.4352643 C 16.471702,0.82126194 16.103498,0.49275506 15.728496,0.29565304 15.353424,0.09855101 14.903086,0 14.37748,0 13.446738,0 12.678864,0.29154701 12.073857,0.87464243 11.46885,1.457735 11.166382,2.198236 11.166382,3.0961452 c 0,0.9033825 0.288802,1.6644171 0.866408,2.2830967 0.577605,0.6186796 1.28528,0.9280229 2.122955,0.9280229 0.689874,0 1.292148,-0.232689 1.806751,-0.698067 0.514673,-0.4653851 0.772009,-1.0210972 0.772009,-1.6671573 l 0,-0.1231879 -4.377312,0 0,-0.082128 c 0,-0.6570067 0.09994,-1.2277792 0.299735,-1.7123243 0.199871,-0.4845381 0.491406,-0.8636888 0.874678,-1.13743808 0.383271,-0.27375632 0.782942,-0.41063238 1.199011,-0.41063238 0.388738,0 0.721341,0.0807568 0.997879,0.24227045 0.276469,0.16151504 0.644673,0.49412511 1.104543,0.99783031" /><path
       inkscape:connector-curvature="0"
       id="path4207"
       style="fill:#00338d;fill-opacity:1;fill-rule:nonzero;stroke:none"
       d="m 24.1187,6.3072648 0.279272,0 0,-5.0000982 c 0,-0.32932331 0.0698,-0.55078539 0.209401,-0.66658467 0.139601,-0.11497653 0.412005,-0.17246445 0.817141,-0.17246445 l 0,-0.27922821 -2.168087,-0.11497584 0,1.09227177 -0.03287,0 C 22.626752,0.38872934 21.931411,0 21.137537,0 20.568131,0 20.101393,0.19025794 19.737324,0.57132186 19.373184,0.95266329 19.191185,1.4311815 19.191185,2.0066072 l 0,3.0509782 c 0,0.3074231 -0.07667,0.5154717 -0.229935,0.6255265 -0.153337,0.1095011 -0.429805,0.1642482 -0.829476,0.1642482 l 0,0.2792296 1.913484,0.1806751 0.287472,0 0,-4.254117 c 0,-0.4161042 0.1218,-0.7446076 0.36547,-0.9855101 0.243601,-0.24090245 0.570738,-0.3613572 0.981411,-0.3613572 0.569406,0 1.095011,0.3257702 1.576816,0.9772967 l 0,3.2174198 c 0,0.4111776 -0.063,0.669327 -0.188938,0.7733548 -0.125935,0.1045674 -0.448937,0.1620617 -0.969076,0.1730083 l 0,0.2792296 2.020287,0.1806751" /><path
       inkscape:connector-curvature="0"
       id="path4209"
       style="fill:#00338d;fill-opacity:1;fill-rule:nonzero;stroke:none"
       d="m 31.178772,6.3072648 0,-1.8314054 -0.336668,0 c -0.05473,0.4599047 -0.219002,0.8253616 -0.492737,1.0963778 -0.273806,0.2710161 -0.605007,0.4065242 -0.993745,0.4065242 -0.29567,0 -0.533805,-0.073914 -0.714473,-0.2217424 -0.180738,-0.1478212 -0.271072,-0.3449233 -0.271072,-0.5913061 0,-0.2409024 0.08354,-0.4530578 0.250539,-0.6364731 0.166932,-0.1834152 0.52967,-0.403784 1.088143,-0.6611134 0.722672,-0.3285034 1.200413,-0.64332 1.433081,-0.9444429 0.232668,-0.3011298 0.349072,-0.662487 0.349072,-1.0840646 0,-0.4982319 -0.186695,-0.92938948 -0.559875,-1.29348195 C 30.557927,0.18204588 30.116068,0 29.606091,0 c -0.263644,0 -0.611805,0.09581366 -1.045464,0.28744028 -0.235682,0.10402642 -0.392312,0.15603963 -0.46863,0.15603963 -0.104631,0 -0.192512,-0.0383257 -0.263644,-0.11497654 -0.07148,-0.0766508 -0.11255,-0.17246444 -0.123482,-0.28744041 l -0.279202,0 0,2.02851184 0.279202,0 c 0.10407,-0.5338189 0.334565,-0.95759 0.691486,-1.27076672 0.356992,-0.31344443 0.766263,-0.47030471 1.226974,-0.47030471 0.296791,0 0.545298,0.098551 0.745448,0.29647439 0.200361,0.19710413 0.300857,0.44128634 0.300857,0.73146964 0,0.2800495 -0.0923,0.5228652 -0.276258,0.7281807 -0.184453,0.2053155 -0.582792,0.4429312 -1.195157,0.7123075 -0.689594,0.3019497 -1.143787,0.5847325 -1.36279,0.8475352 -0.218161,0.2633493 -0.327627,0.5809061 -0.327627,0.9532099 0,0.4661979 0.179266,0.8672489 0.537869,1.2036924 0.358674,0.3375368 0.784344,0.5058917 1.277081,0.5058917 0.229935,0 0.479072,-0.054747 0.747341,-0.1642482 0.191671,-0.076654 0.347671,-0.1149814 0.468139,-0.1149814 0.158733,0 0.276469,0.093081 0.353137,0.2792296 l 0.287401,0" /><path
       inkscape:connector-curvature="0"
       id="path4211"
       style="fill:#00338d;fill-opacity:1;fill-rule:nonzero;stroke:none"
       d="m 37.680721,6.3072648 0,-1.8314054 -0.336738,0 c -0.05473,0.4599047 -0.219002,0.8253616 -0.492737,1.0963778 -0.273735,0.2710161 -0.605007,0.4065242 -0.993745,0.4065242 -0.29567,0 -0.533805,-0.073914 -0.714473,-0.2217424 -0.180668,-0.1478212 -0.271002,-0.3449233 -0.271002,-0.5913061 0,-0.2409024 0.08347,-0.4530578 0.250469,-0.6364731 0.167002,-0.1834152 0.52967,-0.403784 1.088143,-0.6611134 0.722742,-0.3285034 1.200413,-0.64332 1.433081,-0.9444429 0.232738,-0.3011298 0.349072,-0.662487 0.349072,-1.0840646 0,-0.4982319 -0.186415,-0.92938948 -0.559805,-1.29348195 C 37.059806,0.18204588 36.618297,0 36.10797,0 c -0.263294,0 -0.611805,0.09581366 -1.045464,0.28744028 -0.235682,0.10402642 -0.391962,0.15603963 -0.46863,0.15603963 -0.10428,0 -0.192442,-0.0383257 -0.263644,-0.11497654 C 34.25882,0.25185259 34.217753,0.15603893 34.20675,0.04106296 l -0.279202,0 0,2.02851184 0.279202,0 c 0.10407,-0.5338189 0.334846,-0.95759 0.691556,-1.27076672 0.356921,-0.31344443 0.766193,-0.47030471 1.227184,-0.47030471 0.296792,0 0.545088,0.098551 0.745168,0.29647439 0.200641,0.19710413 0.300857,0.44128634 0.300857,0.73146964 0,0.2800495 -0.09195,0.5228652 -0.276188,0.7281807 -0.184243,0.2053155 -0.582862,0.4429312 -1.195227,0.7123075 -0.689594,0.3019497 -1.143437,0.5847325 -1.362439,0.8475352 -0.218512,0.2633493 -0.327978,0.5809061 -0.327978,0.9532099 0,0.4661979 0.179336,0.8672489 0.537939,1.2036924 0.358604,0.3375368 0.784274,0.5058917 1.277011,0.5058917 0.230005,0 0.479072,-0.054747 0.747341,-0.1642482 0.191671,-0.076654 0.347671,-0.1149814 0.468139,-0.1149814 0.158803,0 0.276469,0.093081 0.353137,0.2792296 l 0.287471,0" /><path
       inkscape:connector-curvature="0"
       id="path4213"
       style="fill:#00338d;fill-opacity:1;fill-rule:nonzero;stroke:none"
       d="m 48.207897,9.4526978 -1.190882,0 0,-4.3198317 c 0.323072,-0.1095011 0.720009,-0.1642552 1.190882,-0.1642552 0.722672,0 1.293479,0.1861554 1.712001,0.5584593 0.418873,0.3723038 0.628274,0.8814823 0.628274,1.5275354 0,0.6953409 -0.20807,1.2688815 -0.624139,1.7205518 -0.415859,0.4516702 -0.987998,0.6775404 -1.716136,0.6775404 z m -3.564306,0.3695356 3.515039,0 c 1.149744,0 2.059672,-0.2546033 2.730345,-0.7637397 0.670742,-0.5092065 1.006078,-1.1662133 1.006078,-1.9710202 0,-0.7993688 -0.292937,-1.4139487 -0.878742,-1.8437397 -0.585874,-0.429791 -1.426282,-0.6446866 -2.521013,-0.6446866 -0.421536,0 -0.914344,0.032854 -1.478283,0.098555 l 0,-2.699208 c 0,-0.5808991 0.07807,-0.9814034 0.234069,-1.2009523 0.15607,-0.21982289 0.44214,-0.32932402 0.858209,-0.32932402 l 0,-0.27922821 -3.465702,0 0,0.27922821 c 0.416139,0 0.702209,0.11497584 0.858209,0.344931 0.156069,0.23076882 0.234069,0.61375292 0.234069,1.15112492 l 0,6.0417079 c 0,0.5754328 -0.078,0.9751031 -0.234069,1.199852 -0.156,0.2250292 -0.44207,0.3372985 -0.858209,0.3372985 l 0,0.2792016" /><path
       inkscape:connector-curvature="0"
       id="path4215"
       style="fill:#00338d;fill-opacity:1;fill-rule:nonzero;stroke:none"
       d="m 55.543386,6.3072648 0,-1.2893731 c 0.54747,0.4763246 0.973141,0.8103083 1.277011,1.00193 0.30387,0.1916287 0.557071,0.2874431 0.759675,0.2874431 0.377805,0 0.741874,-0.1560417 1.092278,-0.4681182 L 58.220679,4.7797224 c -0.635141,0.3504036 -1.106013,0.5256054 -1.412617,0.5256054 -0.339401,0 -0.761006,-0.2409025 -1.264676,-0.7227075 l 0,-3.2754537 c 0,-0.32932331 0.0684,-0.55078539 0.205266,-0.66658467 0.136868,-0.11497653 0.39967,-0.17246445 0.788408,-0.17246445 l 0,-0.27922821 -3.145433,0 0,0.27922821 c 0.41614,0 0.688543,0.0657007 0.817212,0.19792338 0.128598,0.13140064 0.192932,0.44758384 0.192932,0.94718224 l 0,3.2541002 c 0,0.4111776 -0.0698,0.6775404 -0.209401,0.798815 -0.139601,0.1209944 -0.480404,0.1812218 -1.022478,0.1812218 l 0,0.2792296 2.086023,0.1806751 0.287471,0" /><path
       inkscape:connector-curvature="0"
       id="path4217"
       style="fill:#00338d;fill-opacity:1;fill-rule:nonzero;stroke:none"
       d="m 61.977637,9.386962 c 0.202603,0 0.37367,-0.0698 0.513271,-0.2094012 0.139601,-0.1396007 0.209471,-0.3107379 0.209471,-0.5132711 0,-0.2026034 -0.0712,-0.3764036 -0.213536,-0.5215408 -0.142404,-0.1450671 -0.312069,-0.2176006 -0.509206,-0.2176006 -0.202604,0 -0.377805,0.072533 -0.525606,0.2176006 -0.1478,0.1451372 -0.221735,0.3189374 -0.221735,0.5215408 0,0.2025332 0.07253,0.3736704 0.217601,0.5132711 0.145137,0.1396008 0.32167,0.2094012 0.52974,0.2094012 z m 0.262802,-3.0796972 0.287472,0 0,-5.0165181 c 0,-0.32905 0.07113,-0.54887921 0.213465,-0.65837753 0.142404,-0.10950112 0.402474,-0.16425169 0.780209,-0.16425169 l 0,-0.27922821 -3.260365,0 0,0.27922821 c 0.476338,0 0.782942,0.0533819 0.919809,0.16096631 0.136868,0.10649046 0.205337,0.32767922 0.205337,0.66302951 l 0,3.665551 c 0,0.3627238 -0.063,0.6014327 -0.188938,0.7166875 -0.125935,0.1155211 -0.438004,0.1730083 -0.936208,0.1730083 l 0,0.2792296 1.979219,0.1806751" /><path
       inkscape:connector-curvature="0"
       id="path4219"
       style="fill:#00338d;fill-opacity:1;fill-rule:nonzero;stroke:none"
       d="m 67.762029,6.1265897 0,-0.2792296 c -0.388737,-0.033401 -0.583071,-0.1990153 -0.583071,-0.497412 0,-0.1439878 0.0438,-0.323023 0.131401,-0.5387455 l 1.326348,-3.1768992 1.167545,3.0140176 c 0.120398,0.3030431 0.180668,0.5316323 0.180668,0.6863005 0,0.3033164 -0.257337,0.4744114 -0.769276,0.5127386 l 0,0.2792296 2.184696,0 0,-0.2792296 C 71.042928,5.8139596 70.795543,5.7419657 70.655382,5.6316446 70.515921,5.5207699 70.383469,5.3053278 70.257323,4.9850378 l -1.923155,-4.92754967 -0.281934,0 -1.906687,4.67296047 c -0.19167,0.4689381 -0.358673,0.7678744 -0.498274,0.8979092 -0.1396,0.1292149 -0.392802,0.2025754 -0.759675,0.2190023 l 0,0.2792296 2.874431,0" /><path
       inkscape:connector-curvature="0"
       id="path4221"
       style="fill:#00338d;fill-opacity:1;fill-rule:nonzero;stroke:none"
       d="m 75.919846,1.3961411 0,2.020294 C 75.75025,3.3452611 75.503566,3.2549201 75.180494,3.1454189 74.584107,2.9428436 74.202167,2.7416349 74.035375,2.5417927 73.867882,2.3419575 73.784486,2.0723079 73.784486,1.7328579 c 0,-0.2956565 0.089,-0.5516123 0.267008,-0.76788143 0.178005,-0.21626209 0.390349,-0.32439454 0.636333,-0.32439454 0.224959,0 0.459729,0.0725455 0.706413,0.21763358 0.246684,0.14508809 0.421886,0.32439659 0.525606,0.53792559 z M 74.318501,0 C 73.853165,0 73.453705,0.15467025 73.11942,0.46401075 72.785135,0.77335476 72.618343,1.1470252 72.618343,1.5850297 c 0,0.4161042 0.143665,0.7596609 0.430996,1.0306771 0.287331,0.2710162 0.871804,0.5297121 1.75342,0.7760879 0.552937,0.1533016 0.925766,0.2847029 1.117087,0.3942041 l 0,0.4434848 c 0,0.4325242 -0.120539,0.7815612 -0.361617,1.0471041 -0.240377,0.2655358 -0.563449,0.3983107 -0.968515,0.3983107 -0.367223,0 -0.693099,-0.1149814 -0.977627,-0.3449303 C 73.32756,5.1000123 73.12783,4.7879358 73.012897,4.3937318 l -0.30415,0.082128 c 0.120539,0.5529789 0.38194,0.9964567 0.784203,1.3304404 0.402264,0.3339767 0.874608,0.500965 1.417032,0.500965 0.640538,0 1.159136,-0.1929953 1.555792,-0.5789859 0.397358,-0.3859906 0.595687,-0.921176 0.595687,-1.6055633 l 0,-2.5541129 c 0,-0.3613502 0.02313,-0.60635937 0.07008,-0.73502758 0.04625,-0.12866119 0.135256,-0.19299319 0.266307,-0.19299319 0.0876,0 0.159083,0.0369564 0.213746,0.11087261 0.05466,0.0739071 0.117736,0.22858228 0.189218,0.46401146 l 0.287331,0 C 78.060812,0.84316217 77.944478,0.54750563 77.739141,0.32850338 77.533805,0.10950112 77.263994,0 76.929709,0 76.442648,0 76.10626,0.28196557 75.919846,0.84589531 75.624105,0.52286805 75.361302,0.30112844 75.131437,0.18067721 74.901573,0.06022562 74.63036,0 74.318501,0" /><path
       inkscape:connector-curvature="0"
       id="path4223"
       style="fill:#00338d;fill-opacity:1;fill-rule:nonzero;stroke:none"
       d="m 81.187113,8.1632826 0.28733,0 0,-2.0038461 2.069484,0 0,-0.4352643 -2.069484,0 0,-3.8352795 c 0,-0.3996774 0.09321,-0.7076471 0.278922,-0.92391623 0.186414,-0.21626209 0.45202,-0.32439454 0.796818,-0.32439454 0.405066,0 0.774391,0.19162662 1.108676,0.57488407 L 83.848077,0.99372359 C 83.327378,0.33124073 82.728188,0 82.049105,0 81.540319,0 81.126843,0.16151433 80.809377,0.4845423 80.491211,0.80756817 80.332829,1.2236724 80.332829,1.7328579 l 0,3.9913143 -1.125497,0 0,0.2874431 c 0.821346,0.4106239 1.481507,1.127858 1.979781,2.1516673" /><path
       inkscape:connector-curvature="0"
       id="path4225"
       style="fill:#00338d;fill-opacity:1;fill-rule:nonzero;stroke:none"
       d="m 86.486617,4.1062957 3.244036,0 0,0.1149744 c 0,0.5310787 -0.152075,0.9526563 -0.455525,1.2647398 -0.30415,0.3120764 -0.683287,0.4681111 -1.13741,0.4681111 -0.482155,0 -0.869701,-0.1642481 -1.162639,-0.4927515 C 86.682142,5.1328661 86.519554,4.6811748 86.486617,4.1062957 Z m 4.476055,-2.3898647 0,-0.4352643 C 90.601056,0.82126194 90.233132,0.49275506 89.8582,0.29565304 89.483268,0.09855101 89.032649,0 88.507044,0 87.576372,0 86.808287,0.29154701 86.20349,0.87464243 85.598694,1.457735 85.295945,2.198236 85.295945,3.0961452 c 0,0.9033825 0.288733,1.6644171 0.866198,2.2830967 0.577465,0.6186796 1.28528,0.9280229 2.123446,0.9280229 0.689594,0 1.291587,-0.232689 1.806681,-0.698067 0.514392,-0.4653851 0.771588,-1.0210972 0.771588,-1.6671573 l 0,-0.1231879 -4.377241,0 0,-0.082128 c 0,-0.6570067 0.100215,-1.2277792 0.299945,-1.7123243 0.19973,-0.4845381 0.491266,-0.8636888 0.874607,-1.13743808 0.383342,-0.27375632 0.782802,-0.41063238 1.199082,-0.41063238 0.388948,0 0.72113,0.0807568 0.997949,0.24227045 0.276118,0.16151504 0.644743,0.49412511 1.104472,0.99783031" /></g></svg>